<svg xmlns="http://www.w3.org/2000/svg" viewBox="0 0 400 400" width="400" height="400">
  <rect width="400" height="400" fill="white" rx="20"/>
  <rect x="20" y="20" width="360" height="360" fill="white" rx="12" stroke="#ddd" stroke-width="2"/>
  <rect x="40" y="40" width="120" height="120" fill="#111" rx="8"/>
  <rect x="60" y="60" width="30" height="30" fill="white" rx="2"/>
  <rect x="100" y="60" width="30" height="30" fill="white" rx="2"/>
  <rect x="60" y="100" width="30" height="30" fill="white" rx="2"/>
  <rect x="100" y="100" width="30" height="30" fill="white" rx="2"/>
  <rect x="240" y="40" width="120" height="120" fill="#111" rx="8"/>
  <rect x="260" y="60" width="30" height="30" fill="white" rx="2"/>
  <rect x="300" y="60" width="30" height="30" fill="white" rx="2"/>
  <rect x="260" y="100" width="30" height="30" fill="white" rx="2"/>
  <rect x="300" y="100" width="30" height="30" fill="white" rx="2"/>
  <rect x="40" y="240" width="120" height="120" fill="#111" rx="8"/>
  <rect x="60" y="260" width="30" height="30" fill="white" rx="2"/>
  <rect x="100" y="260" width="30" height="30" fill="white" rx="2"/>
  <rect x="60" y="300" width="30" height="30" fill="white" rx="2"/>
  <rect x="100" y="300" width="30" height="30" fill="white" rx="2"/>
  <rect x="240" y="240" width="120" height="120" fill="#111" rx="8"/>
  <rect x="260" y="260" width="30" height="30" fill="white" rx="2"/>
  <rect x="300" y="260" width="30" height="30" fill="white" rx="2"/>
  <rect x="260" y="300" width="30" height="30" fill="white" rx="2"/>
  <rect x="300" y="300" width="30" height="30" fill="white" rx="2"/>
  <rect x="180" y="180" width="40" height="40" fill="#111" rx="4"/>
  <rect x="185" y="185" width="10" height="10" fill="white" rx="1"/>
  <rect x="200" y="185" width="10" height="10" fill="white" rx="1"/>
  <rect x="185" y="200" width="10" height="10" fill="white" rx="1"/>
  <rect x="200" y="200" width="10" height="10" fill="white" rx="1"/>
  <line x1="180" y1="180" x2="220" y2="180" stroke="#111" stroke-width="3"/>
  <line x1="180" y1="220" x2="220" y2="220" stroke="#111" stroke-width="3"/>
  <line x1="180" y1="180" x2="180" y2="220" stroke="#111" stroke-width="3"/>
  <line x1="220" y1="180" x2="220" y2="220" stroke="#111" stroke-width="3"/>
  <text x="200" y="370" text-anchor="middle" fill="#999" font-family="Arial" font-size="14" font-weight="bold">QRIS</text>
  <text x="200" y="390" text-anchor="middle" fill="#bbb" font-family="Arial" font-size="10">Seblak Mamah Zahwa</text>
</svg>
